<svg xmlns="http://www.w3.org/2000/svg" xmlns:xlink="http://www.w3.org/1999/xlink" width="500" zoomAndPan="magnify" viewBox="0 0 375 374.999991" height="500" preserveAspectRatio="xMidYMid meet" version="1.0"><defs><g/><clipPath id="d120fe6c65"><path d="M 0.0117188 127.632812 L 374.988281 127.632812 L 374.988281 221.382812 L 0.0117188 221.382812 Z M 0.0117188 127.632812 " clip-rule="nonzero"/></clipPath><clipPath id="8ce544a8d2"><path d="M 9.226562 136.472656 L 170.785156 136.472656 L 170.785156 212.867188 L 9.226562 212.867188 Z M 9.226562 136.472656 " clip-rule="nonzero"/></clipPath></defs><g clip-path="url(#d120fe6c65)"><path stroke-linecap="butt" transform="matrix(0.75, 0, 0, 0.747477, 0.010603, 127.634377)" fill="none" stroke-linejoin="miter" d="M 0.00148764 -0.00209333 L 499.97027 -0.00209333 L 499.97027 125.41979 L 0.00148764 125.41979 Z M 0.00148764 -0.00209333 " stroke="#000000" stroke-width="6" stroke-opacity="1" stroke-miterlimit="4"/></g><g clip-path="url(#8ce544a8d2)"><path fill="#000000" d="M 9.226562 136.472656 L 170.785156 136.472656 L 170.785156 212.867188 L 9.226562 212.867188 Z M 9.226562 136.472656 " fill-opacity="1" fill-rule="nonzero"/></g><g fill="#ffffff" fill-opacity="1"><g transform="translate(48.75424, 186.572029)"><g><path d="M 3.738281 0 L 12.613281 0 C 20.492188 0 25.773438 -5.242188 25.773438 -12.832031 C 25.773438 -20.421875 20.492188 -25.664062 12.613281 -25.664062 L 3.738281 -25.664062 Z M 6.964844 -3.078125 L 6.964844 -22.582031 L 12.464844 -22.582031 C 18.441406 -22.582031 22.472656 -18.660156 22.472656 -12.832031 C 22.472656 -7.003906 18.476562 -3.078125 12.613281 -3.078125 Z M 6.964844 -3.078125 "/></g></g></g><g fill="#ffffff" fill-opacity="1"><g transform="translate(79.43096, 186.572029)"><g><path d="M 0.625 0 L 4.070312 0 L 6.414062 -5.828125 L 18.917969 -5.828125 L 21.335938 0 L 24.746094 0 L 14.1875 -25.664062 L 11.183594 -25.664062 Z M 7.664062 -8.835938 L 12.683594 -21.152344 L 17.707031 -8.835938 Z M 7.664062 -8.835938 "/></g></g></g><g fill="#ffffff" fill-opacity="1"><g transform="translate(107.578861, 186.572029)"><g><path d="M 10.265625 0 L 13.417969 0 L 13.417969 -9.238281 L 23.058594 -25.664062 L 19.429688 -25.664062 L 11.878906 -12.683594 L 8.542969 -18.476562 L 4.363281 -25.664062 L 0.625 -25.664062 L 10.265625 -9.238281 Z M 10.265625 0 "/></g></g></g><g fill="#000000" fill-opacity="1"><g transform="translate(179.345009, 186.769459)"><g><path d="M 8.835938 0 L 16.203125 0 L 16.203125 -18.808594 L 24.011719 -18.808594 L 24.011719 -25.664062 L 1.027344 -25.664062 L 1.027344 -18.808594 L 8.835938 -18.808594 Z M 8.835938 0 "/></g></g></g><g fill="#000000" fill-opacity="1"><g transform="translate(204.382766, 186.769459)"><g><path d="M 2.710938 0 L 10.117188 0 L 10.117188 -7.296875 L 12.90625 -7.296875 L 16.570312 0 L 24.964844 0 L 20.238281 -8.652344 C 22.949219 -10.15625 24.488281 -12.867188 24.488281 -16.460938 C 24.488281 -22.144531 20.640625 -25.664062 14.40625 -25.664062 L 2.710938 -25.664062 Z M 9.972656 -13.199219 L 9.972656 -19.613281 L 13.417969 -19.613281 C 15.765625 -19.613281 17.046875 -18.476562 17.046875 -16.425781 C 17.046875 -14.371094 15.765625 -13.199219 13.417969 -13.199219 Z M 9.972656 -13.199219 "/></g></g></g><g fill="#000000" fill-opacity="1"><g transform="translate(230.776889, 186.769459)"><g><path d="M 0.183594 0 L 8.027344 0 L 9.421875 -3.628906 L 18.183594 -3.628906 L 19.578125 0 L 27.457031 0 L 17.488281 -25.664062 L 10.15625 -25.664062 Z M 10.960938 -9.054688 L 13.820312 -17.011719 L 16.679688 -9.054688 Z M 10.960938 -9.054688 "/></g></g></g><g fill="#000000" fill-opacity="1"><g transform="translate(258.417395, 186.769459)"><g><path d="M 2.710938 0 L 13.601562 0 C 21.886719 0 27.386719 -5.097656 27.386719 -12.832031 C 27.386719 -20.53125 21.886719 -25.664062 13.601562 -25.664062 L 2.710938 -25.664062 Z M 10.117188 -6.636719 L 10.117188 -19.027344 L 13.382812 -19.027344 C 17.304688 -19.027344 19.832031 -16.605469 19.832031 -12.832031 C 19.832031 -9.054688 17.304688 -6.636719 13.382812 -6.636719 Z M 10.117188 -6.636719 "/></g></g></g><g fill="#000000" fill-opacity="1"><g transform="translate(287.047679, 186.769459)"><g><path d="M 2.710938 0 L 10.117188 0 L 10.117188 -25.664062 L 2.710938 -25.664062 Z M 2.710938 0 "/></g></g></g><g fill="#000000" fill-opacity="1"><g transform="translate(299.878161, 186.769459)"><g><path d="M 2.710938 0 L 10.046875 0 L 10.046875 -13.085938 L 19.796875 0 L 25.808594 0 L 25.808594 -25.664062 L 18.511719 -25.664062 L 18.511719 -12.648438 L 8.761719 -25.664062 L 2.710938 -25.664062 Z M 2.710938 0 "/></g></g></g><g fill="#000000" fill-opacity="1"><g transform="translate(328.435135, 186.769459)"><g><path d="M 14.957031 0.550781 C 23.792969 0.550781 29.328125 -5.867188 28.523438 -14.882812 L 13.675781 -14.882812 L 13.675781 -9.679688 L 20.75 -9.679688 C 20.015625 -7.515625 17.964844 -6.050781 15.03125 -6.050781 C 10.925781 -6.050781 8.542969 -8.945312 8.542969 -12.832031 C 8.542969 -16.863281 11.144531 -19.613281 14.957031 -19.613281 C 17.230469 -19.613281 19.171875 -18.625 20.164062 -17.011719 L 28.046875 -17.011719 C 26.542969 -22.621094 21.335938 -26.210938 14.847656 -26.210938 C 6.78125 -26.210938 1.246094 -20.714844 1.246094 -12.832031 C 1.246094 -4.914062 6.820312 0.550781 14.957031 0.550781 Z M 14.957031 0.550781 "/></g></g></g></svg>